<?xml version="1.0" encoding="UTF-8"?>
<svg width="752pt" height="752pt" version="1.1" viewBox="0 0 752 752" xmlns="http://www.w3.org/2000/svg">
 <defs>
  <clipPath id="b">
   <path d="m165 342h422v270.79h-422z"/>
  </clipPath>
  <clipPath id="a">
   <path d="m274 139.21h204v203.79h-204z"/>
  </clipPath>
 </defs>
 <g>
  <g clip-path="url(#b)">
   <path d="m441.48 342.39-67.477 119.58-63.969-119.42c-77.941 25.609-135.87 95.32-144.21 179.64 41.809 64.613 120.27 90.602 210.18 90.602 89.902 0 168.37-25.992 210.18-90.598-8.3594-84.504-66.516-154.32-144.71-179.8zm66.004 154.55h-20.953v20.949h-17.859v-20.949h-20.953v-17.859h20.953v-20.953h17.859v20.953h20.953z"/>
  </g>
  <g clip-path="url(#a)">
   <path d="m477.59 240.8c0 56.109-45.484 101.59-101.59 101.59-56.105 0-101.59-45.484-101.59-101.59 0-56.105 45.484-101.59 101.59-101.59 56.109 0 101.59 45.484 101.59 101.59"/>
  </g>
 </g>
</svg>
